<svg width="29" height="30" viewBox="0 0 29 30" fill="none" xmlns="http://www.w3.org/2000/svg">
<path fill-rule="evenodd" clip-rule="evenodd" d="M13.0589 0.652306C10.6581 0.858909 8.35722 1.68526 6.41503 3.03839C5.52671 3.6573 5.10299 4.02222 4.27561 4.88116C2.67331 6.54458 1.60455 8.35337 0.905035 10.5855C0.449674 12.0385 0.263746 13.2924 0.261626 14.9242C0.260158 16.1204 0.314305 16.7102 0.524208 17.7844C1.64407 23.5147 6.013 27.9619 11.5917 29.0501L11.9682 29.1235V24.1129V19.1023H10.2014H8.43453V17.0273V14.9523H10.2014H11.9682V12.9713C11.9682 10.7442 12.0111 10.3159 12.3253 9.40702C12.9288 7.66105 14.3045 6.54352 16.2029 6.25717C16.7975 6.1675 18.5999 6.21556 19.5929 6.34752L20.3404 6.44689V8.22377V10.0006L19.1852 10.0308C18.19 10.0568 17.9814 10.078 17.6794 10.1836C17.2419 10.3366 16.9859 10.5242 16.7326 10.8772C16.3889 11.3565 16.3598 11.5349 16.3311 13.3399L16.3054 14.9523H18.2414C19.942 14.9523 20.1774 14.9627 20.1774 15.038C20.1774 15.1307 19.6527 18.6938 19.6017 18.9481L19.5707 19.1023H17.9441H16.3174V24.1148V29.1272L16.5757 29.0749C19.1086 28.5611 21.1433 27.5817 23.0401 25.9632C27.1238 22.4788 28.9113 16.8259 27.6221 11.4723C26.2563 5.80084 21.5912 1.49627 15.9913 0.740465C15.1878 0.63206 13.7845 0.589831 13.0589 0.652306Z" fill="#646464" fill-opacity="0.68"/>
</svg>
