<svg width="29" height="30" viewBox="0 0 29 30" fill="none" xmlns="http://www.w3.org/2000/svg">
<path fill-rule="evenodd" clip-rule="evenodd" d="M13.059 0.654076C10.6582 0.860679 8.35734 1.68703 6.41515 3.04016C5.52683 3.65907 5.10311 4.02399 4.27573 4.88293C2.67343 6.54635 1.60467 8.35514 0.905157 10.5872C0.449796 12.0402 0.263868 13.2942 0.261748 14.926C0.26028 16.1222 0.314427 16.712 0.52433 17.7861C1.64419 23.5165 6.01312 27.9637 11.5918 29.0518L11.9684 29.1252V24.1147V19.104H10.2015H8.43465V17.029V14.954H10.2015H11.9684V12.973C11.9684 10.7459 12.0113 10.3177 12.3254 9.40879C12.9289 7.66282 14.3046 6.54529 16.203 6.25894C16.7976 6.16927 18.6 6.21733 19.5931 6.34929L20.3406 6.44866V8.22554V10.0024L19.1853 10.0326C18.1901 10.0586 17.9815 10.0798 17.6795 10.1854C17.242 10.3384 16.986 10.526 16.7327 10.879C16.3891 11.3582 16.36 11.5367 16.3312 13.3417L16.3055 14.954H18.2415C19.9421 14.954 20.1775 14.9645 20.1775 15.0397C20.1775 15.1324 19.6529 18.6956 19.6018 18.9498L19.5708 19.104H17.9442H16.3176V24.1165V29.129L16.5758 29.0766C19.1087 28.5629 21.1434 27.5835 23.0402 25.965C27.124 22.4806 28.9114 16.8277 27.6222 11.4741C26.2565 5.80261 21.5913 1.49804 15.9914 0.742235C15.188 0.633831 13.7846 0.591601 13.059 0.654076Z" fill="#646464" fill-opacity="0.68"/>
</svg>
