<svg width="28" height="29" viewBox="0 0 28 29" fill="none" xmlns="http://www.w3.org/2000/svg">
<path fill-rule="evenodd" clip-rule="evenodd" d="M12.6112 0.65872C8.26568 1.1106 4.45725 3.47552 2.14373 7.15879C-1.13646 12.3811 -0.524259 19.2784 3.62284 23.822C5.91794 26.3365 8.78826 27.8398 12.2304 28.3301C12.873 28.4217 15.0086 28.4205 15.6795 28.3283C18.8232 27.896 21.6387 26.5018 23.7799 24.3167C24.4827 23.5996 24.6324 23.4282 25.0985 22.8065C26.4876 20.9538 27.397 18.6953 27.748 16.227C27.8388 15.5875 27.8388 13.442 27.7479 12.8028C27.5138 11.1574 27.0882 9.75536 26.4053 8.38033C25.6817 6.92351 24.9393 5.88491 23.7836 4.71304C21.6397 2.53916 18.9555 1.18875 15.8696 0.731551C15.2033 0.632795 13.2748 0.589749 12.6112 0.65872ZM9.02568 6.66648C9.41052 6.80154 9.87167 7.27228 10.006 7.66719C10.3202 8.59045 9.89215 9.566 9.03166 9.88814C8.01767 10.2678 6.98266 9.9525 6.52417 9.12429C6.37697 8.8583 6.36415 8.79177 6.36415 8.29169C6.36415 7.83552 6.38338 7.71225 6.48376 7.52447C6.73916 7.04683 7.11492 6.74426 7.63675 6.59609C7.95673 6.50527 8.66925 6.54136 9.02568 6.66648ZM19.3459 11.338C19.8966 11.4876 20.5025 11.8381 20.8939 12.2334C21.3126 12.6563 21.5628 13.0612 21.7732 13.6561C22.0751 14.5097 22.0889 14.7139 22.0889 18.3266V21.6349H20.4051H18.7212L18.7203 18.6592C18.7196 16.3103 18.7033 15.6074 18.6429 15.3223C18.5028 14.6611 18.238 14.2794 17.7546 14.0424C17.324 13.8311 16.7169 13.827 16.277 14.0324C15.8855 14.2151 15.5594 14.5504 15.3405 14.9951L15.1635 15.3548L15.146 18.4949L15.1285 21.6349H13.4486H11.7687V16.5259V11.4169H13.4525H15.1363L15.1381 12.137L15.1398 12.8572L15.2774 12.6941C15.3531 12.6045 15.5106 12.4172 15.6274 12.278C16.0212 11.8087 16.8061 11.3794 17.5001 11.2538C17.8844 11.1843 18.9607 11.2333 19.3459 11.338ZM9.9086 16.5395L9.92245 21.6349H8.2112H6.49995V16.5621C6.49995 13.7721 6.51657 11.4727 6.53694 11.4523C6.55725 11.432 7.32111 11.4218 8.23434 11.4297L9.89475 11.4441L9.9086 16.5395Z" fill="#646464" fill-opacity="0.68"/>
</svg>
