<svg width="29" height="29" viewBox="0 0 29 29" fill="none" xmlns="http://www.w3.org/2000/svg">
<path fill-rule="evenodd" clip-rule="evenodd" d="M13.5075 0.651135C11.4936 0.844124 9.96269 1.27254 8.28965 2.11147C6.9605 2.77792 5.87941 3.56893 4.73796 4.71009C3.51726 5.9306 2.75139 7.00235 2.02124 8.51207C1.16537 10.2816 0.732846 12.0424 0.661464 14.0478C0.579064 16.3624 1.05512 18.5653 2.08513 20.6359C2.81072 22.0946 3.55623 23.1265 4.73796 24.308C5.93271 25.5025 6.96951 26.2484 8.43215 26.9658C9.45271 27.4663 10.1116 27.7099 11.1463 27.9694C13.8611 28.6502 16.584 28.5197 19.2364 27.5815C20.0405 27.2972 21.444 26.5939 22.1656 26.1139C24.1468 24.7958 25.7841 22.9758 26.8682 20.8867C27.849 18.9964 28.3398 17.1209 28.4164 14.9704C28.4988 12.6557 28.0227 10.4529 26.9927 8.3822C26.3163 7.02254 25.5634 5.95692 24.5062 4.86319C23.3338 3.65023 22.1839 2.81336 20.6457 2.05345C19.0378 1.25919 17.5396 0.835223 15.7603 0.670835C15.2072 0.619766 13.95 0.608749 13.5075 0.651135ZM18.5465 8.35365C18.9603 8.49237 19.378 8.7322 19.7034 9.01783L19.8934 9.18466L20.2696 9.08708C20.7219 8.96974 21.3206 8.73605 21.6363 8.55365C21.7641 8.47984 21.867 8.44754 21.867 8.4813C21.867 8.59896 21.5484 9.17174 21.3278 9.4508C21.2053 9.6058 20.9825 9.82408 20.8328 9.93583C20.6831 10.0476 20.5844 10.1469 20.6135 10.1567C20.6984 10.1849 21.7611 9.91472 22.046 9.79239L22.3064 9.68054L22.2089 9.84894C22.0726 10.0841 21.2155 10.9834 20.9568 11.1626L20.7426 11.3111L20.7105 12.1367C20.6582 13.4882 20.361 14.6166 19.7212 15.893C18.4213 18.4866 16.0976 20.2305 13.3272 20.6917C11.2746 21.0334 9.41162 20.7696 7.61791 19.8833C6.63925 19.3998 6.63866 19.4218 7.6311 19.4137C8.35713 19.4078 8.56508 19.386 9.00672 19.2698C9.88208 19.0395 10.6906 18.6703 11.2734 18.2347L11.4549 18.0991L11.192 18.0652C10.8026 18.0149 10.2629 17.8343 9.92491 17.6411C9.52078 17.4102 8.95792 16.8325 8.7504 16.4357C8.44897 15.8592 8.42737 15.893 9.09775 15.893C9.88973 15.893 10.0022 15.8409 9.54417 15.6863C9.35055 15.6209 9.06996 15.4963 8.92069 15.4093C8.54006 15.1877 7.97645 14.5975 7.76583 14.2001C7.57438 13.8389 7.37364 13.1423 7.37364 12.8393C7.37364 12.6814 7.38846 12.6587 7.46863 12.6941C7.73755 12.8125 8.29839 12.9803 8.51661 13.0078L8.76392 13.0388L8.35278 12.6206C7.69656 11.9533 7.40789 11.2498 7.41294 10.3302C7.41571 9.82343 7.47716 9.53411 7.67816 9.08149L7.81094 8.78256L8.50152 9.4634C9.79821 10.7417 11.351 11.583 13.0461 11.9257C13.4765 12.0127 14.3634 12.1157 14.3966 12.0825C14.4061 12.073 14.3925 11.9374 14.3663 11.7811C14.2681 11.1948 14.4477 10.3278 14.7873 9.74848C15.2353 8.98407 16.1594 8.35002 17.0219 8.21521C17.4739 8.14449 18.0894 8.20039 18.5465 8.35365Z" fill="#646464" fill-opacity="0.68"/>
</svg>
