<svg width="31" height="25" viewBox="0 0 31 25" fill="none" xmlns="http://www.w3.org/2000/svg">
<path d="M31.0006 19.5912C30.0257 20.1763 29.3561 21.0985 28.5791 21.8968C28.044 22.4472 28.3983 23.2232 28.3519 23.8926C28.3104 24.5 28.1344 24.9561 27.4869 24.9958C26.7661 25.0404 26.3532 24.5148 26.4851 23.9149C26.8858 22.0753 25.625 21.1803 24.5841 20.1292C23.5627 19.0978 23.4723 18.7408 24.5817 17.8731C26.1943 16.6112 26.661 15.0642 26.4802 13.0933C26.3385 11.5562 26.4509 9.99679 26.4509 8.43491C25.0516 8.68944 24.352 9.49352 24.352 10.8471C24.352 11.9082 24.2762 12.9792 24.3715 14.0329C24.4839 15.27 23.939 16.0361 22.9641 16.6385C20.115 18.3987 16.9654 18.6565 13.7523 18.4979C11.6118 18.3913 9.52026 18.002 7.61192 16.9038C6.40242 16.2071 5.63762 15.3518 5.79889 13.7874C5.93572 12.4537 5.79889 11.0926 5.84043 9.74639C5.85753 9.15387 5.65472 8.89108 5.10006 8.70018C3.69264 8.21922 2.31698 7.64901 0.921769 7.13334C0.442854 6.95732 0.0176941 6.75899 0.000589954 6.15655C-0.0189576 5.48717 0.450184 5.28884 0.973082 5.09794C5.46902 3.46168 9.96252 1.81551 14.4487 0.151986C15.0156 -0.0587438 15.514 -0.0463479 16.0785 0.164382C20.5231 1.81055 24.9751 3.43441 29.4295 5.05579C29.9768 5.25661 30.5339 5.43759 30.5021 6.1739C30.4752 6.83832 29.9548 7.06393 29.4441 7.17549C28.5425 7.37382 28.2639 7.84982 28.3104 8.79439C28.4008 10.6686 28.3959 12.5553 28.3128 14.4296C28.2688 15.4559 28.5058 16.2394 29.3244 16.8591C29.923 17.3104 30.2895 18.0318 30.9957 18.364V19.5887L31.0006 19.5912ZM26.8076 6.11936C22.8688 4.66904 19.2623 3.34764 15.6631 2.00889C15.233 1.85022 14.8836 2.0188 14.5073 2.16012C12.0614 3.06502 9.60822 3.95504 7.16477 4.8649C6.09943 5.26157 4.973 5.52188 3.84657 6.20117C7.52396 7.58703 11.0425 8.91339 14.5635 10.2422C14.9643 10.3935 15.3503 10.334 15.7413 10.1926C19.3185 8.8762 22.8957 7.56224 26.8101 6.12184L26.8076 6.11936ZM7.73898 9.70921C7.73898 11.1397 7.79763 12.4363 7.71699 13.7255C7.66568 14.5585 8.01998 14.9998 8.6846 15.3469C10.18 16.1253 11.8 16.4129 13.442 16.5592C16.2422 16.8071 18.9837 16.579 21.542 15.265C21.9452 15.0568 22.4803 14.9006 22.4827 14.2808C22.4901 12.8032 22.4827 11.3256 22.4827 9.74639C20.2006 10.572 18.087 11.3132 15.9929 12.1041C15.3528 12.347 14.7883 12.357 14.1433 12.1041C12.0614 11.2884 9.95519 10.5323 7.73654 9.70921H7.73898ZM27.4527 20.3523C27.8974 19.849 28.5816 19.4177 28.5938 18.9689C28.606 18.5078 27.9414 17.7938 27.4332 17.8062C26.92 17.8186 26.2285 18.5152 26.253 18.9838C26.2774 19.4375 26.9885 19.8565 27.4527 20.3498V20.3523Z" fill="url(#paint0_linear_1_25)"/>
<defs>
<linearGradient id="paint0_linear_1_25" x1="15.5003" y1="0" x2="15.5003" y2="24.9984" gradientUnits="userSpaceOnUse">
<stop stop-color="#F4AF1C"/>
<stop offset="1" stop-color="#F4AF1C"/>
</linearGradient>
</defs>
</svg>
