<svg width="29" height="29" viewBox="0 0 29 29" fill="none" xmlns="http://www.w3.org/2000/svg">
<path fill-rule="evenodd" clip-rule="evenodd" d="M13.5073 0.649365C11.4933 0.842354 9.96245 1.27077 8.28941 2.1097C6.96025 2.77615 5.87917 3.56716 4.73772 4.70832C3.51701 5.92883 2.75114 7.00058 2.02099 8.5103C1.16512 10.2798 0.732601 12.0406 0.66122 14.046C0.57882 16.3606 1.05488 18.5635 2.08488 20.6342C2.81048 22.0928 3.55599 23.1247 4.73772 24.3063C5.93247 25.5007 6.96926 26.2466 8.4319 26.964C9.45246 27.4645 10.1114 27.7082 11.146 27.9676C13.8609 28.6485 16.5838 28.5179 19.2362 27.5797C20.0402 27.2954 21.4438 26.5921 22.1653 26.1121C24.1465 24.794 25.7838 22.9741 26.8679 20.8849C27.8488 18.9946 28.3395 17.1192 28.4161 14.9686C28.4985 12.654 28.0225 10.4511 26.9924 8.38043C26.3161 7.02077 25.5631 5.95515 24.5059 4.86142C23.3336 3.64846 22.1837 2.81159 20.6454 2.05168C19.0375 1.25742 17.5394 0.833453 15.76 0.669065C15.207 0.617996 13.9498 0.606979 13.5073 0.649365ZM18.5462 8.35188C18.96 8.4906 19.3778 8.73043 19.7031 9.01606L19.8932 9.18289L20.2693 9.08531C20.7216 8.96797 21.3204 8.73428 21.6361 8.55188C21.7639 8.47807 21.8668 8.44577 21.8668 8.47953C21.8668 8.59719 21.5482 9.16997 21.3275 9.44903C21.205 9.60403 20.9823 9.82231 20.8325 9.93406C20.6828 10.0458 20.5841 10.1452 20.6133 10.1549C20.6982 10.1832 21.7609 9.91295 22.0458 9.79062L22.3062 9.67877L22.2087 9.84717C22.0724 10.0823 21.2153 10.9817 20.9566 11.1609L20.7423 11.3093L20.7103 12.1349C20.6579 13.4864 20.3607 14.6149 19.721 15.8912C18.421 18.4848 16.0974 20.2287 13.327 20.6899C11.2743 21.0316 9.41137 20.7678 7.61767 19.8816C6.63901 19.3981 6.63841 19.42 7.63086 19.4119C8.35688 19.406 8.56484 19.3842 9.00648 19.268C9.88184 19.0378 10.6904 18.6685 11.2731 18.233L11.4546 18.0973L11.1917 18.0634C10.8024 18.0131 10.2627 17.8325 9.92467 17.6393C9.52053 17.4084 8.95768 16.8308 8.75016 16.4339C8.44873 15.8575 8.42712 15.8912 9.09751 15.8912C9.88949 15.8912 10.002 15.8392 9.54393 15.6845C9.3503 15.6191 9.06972 15.4945 8.92044 15.4075C8.53981 15.1859 7.9762 14.5958 7.76559 14.1984C7.57413 13.8371 7.3734 13.1406 7.3734 12.8375C7.3734 12.6796 7.38821 12.657 7.46839 12.6923C7.7373 12.8107 8.29815 12.9786 8.51636 13.006L8.76367 13.037L8.35254 12.6189C7.69632 11.9515 7.40765 11.248 7.4127 10.3284C7.41546 9.82166 7.47691 9.53234 7.67792 9.07972L7.81069 8.78079L8.50127 9.46163C9.79797 10.7399 11.3508 11.5812 13.0459 11.924C13.4763 12.011 14.3632 12.1139 14.3964 12.0807C14.4058 12.0712 14.3922 11.9356 14.366 11.7793C14.2679 11.193 14.4474 10.3261 14.787 9.74671C15.2351 8.9823 16.1592 8.34825 17.0217 8.21344C17.4737 8.14272 18.0892 8.19862 18.5462 8.35188Z" fill="#646464" fill-opacity="0.68"/>
</svg>
