<svg width="115" height="44" viewBox="0 0 115 44" fill="none" xmlns="http://www.w3.org/2000/svg">
<path d="M28.0628 7.24192L15.572 14.4838V0L28.0628 7.24192Z" fill="#A3356C"/>
<path d="M0.333103 27.8549L12.824 20.613V35.0968L0.333103 27.8549Z" fill="#F4925B"/>
<path d="M0.216715 11.883L12.7076 19.1249L0.216715 26.3668L0.216715 11.883Z" fill="#F9B90D"/>
<path d="M31.1941 25.8061V40.29L18.7032 33.048L31.1941 25.8061Z" fill="#F9B90D"/>
<path d="M12.7909 3.0608L12.7909 17.5446L0.299991 10.3027L12.7909 3.0608Z" fill="#F9A81D"/>
<path d="M12.4909 36.3844L0 43.6263L6.30459e-07 29.1425L12.4909 36.3844Z" fill="#F9A81D"/>
<path d="M15.5719 15.8969L28.0628 8.65493V23.1388L15.5719 15.8969Z" fill="#BA437D"/>
<path d="M15.7887 17.2766L28.2795 24.5185L15.7887 31.7605V17.2766Z" fill="#A3356C"/>
<path d="M37.7178 5.74876C37.7178 5.46965 37.8129 5.24196 38.0031 5.06569C38.2079 4.87472 38.4639 4.77924 38.7711 4.77924H44.8272C46.2461 4.77924 47.3725 5.19789 48.2063 6.03521C49.0547 6.85783 49.4789 7.95956 49.4789 9.34039C49.4789 11.0738 48.7256 12.3004 47.2189 13.0202V13.0863C47.8771 13.3654 48.3818 13.7914 48.7329 14.3643C49.084 14.9225 49.2595 15.6055 49.2595 16.4135V18.683C49.2595 19.2412 49.084 19.6672 48.7329 19.961C48.3818 20.2548 47.8698 20.4017 47.1969 20.4017V16.5457C47.1969 15.679 46.9994 15.0253 46.6045 14.5846C46.2241 14.1292 45.6536 13.9015 44.893 13.9015H39.7585V18.683C39.7585 19.2412 39.5829 19.6672 39.2319 19.961C38.8954 20.2548 38.3907 20.4017 37.7178 20.4017V5.74876ZM44.7613 12.1167C45.5659 12.1167 46.2022 11.867 46.6703 11.3676C47.153 10.8681 47.3944 10.185 47.3944 9.31835C47.3944 8.43697 47.1677 7.76125 46.7142 7.29118C46.2607 6.82111 45.6098 6.58607 44.7613 6.58607H39.7585V12.1167H44.7613Z" fill="black"/>
<path d="M55.4171 20.4017C54.159 20.4017 53.1424 20.0639 52.3671 19.3881C51.6064 18.7124 51.2261 17.8237 51.2261 16.722C51.2261 15.6055 51.6284 14.7095 52.4329 14.0337C53.2375 13.3433 54.298 12.9981 55.6145 12.9981C57.0188 12.9981 58.1745 13.4976 59.0814 14.4965L59.1692 14.4083C59.0083 14.2321 58.8254 14.0484 58.6206 13.8575V12.932C58.6206 12.1828 58.3866 11.6026 57.9185 11.1913C57.4504 10.78 56.7848 10.5743 55.9217 10.5743C54.3858 10.5743 53.2887 11.1839 52.6304 12.4032C52.3963 12.2857 52.1988 12.1314 52.0379 11.9405C51.8917 11.7348 51.8185 11.5292 51.8185 11.3235C51.8185 10.9269 52.016 10.5523 52.411 10.1997C52.8059 9.83249 53.3252 9.5387 53.9689 9.31835C54.6271 9.09801 55.3147 8.98784 56.0314 8.98784C57.4211 8.98784 58.5109 9.33304 59.3008 10.0235C60.1054 10.7139 60.5077 11.6687 60.5077 12.8879V18.9254C60.5077 19.4396 60.3614 19.8141 60.0688 20.0492C59.7763 20.2842 59.3155 20.4017 58.6865 20.4017V19.3661C58.9937 19.0429 59.1619 18.852 59.1911 18.7932L59.1034 18.7051C58.1525 19.8362 56.9238 20.4017 55.4171 20.4017ZM55.7462 18.8813C56.6531 18.8813 57.3626 18.6904 57.8746 18.3084C58.4012 17.9265 58.6645 17.3977 58.6645 16.722C58.6645 16.0462 58.4085 15.5101 57.8965 15.1134C57.3845 14.7168 56.6824 14.5185 55.7901 14.5185C54.9563 14.5185 54.298 14.7168 53.8153 15.1134C53.3472 15.4954 53.1131 16.0315 53.1131 16.722C53.1131 17.4124 53.3398 17.9485 53.7933 18.3305C54.2614 18.6977 54.9124 18.8813 55.7462 18.8813Z" fill="black"/>
<path d="M67.4898 20.4017C66.2318 20.4017 65.2078 20.0565 64.4179 19.3661C63.6426 18.661 63.2549 17.7282 63.2549 16.5677V12.7998C63.2549 12.0506 63.4378 11.3896 63.8035 10.8167C64.1692 10.2291 64.6738 9.78108 65.3175 9.4726C65.9758 9.14942 66.7291 8.98784 67.5775 8.98784C68.2651 8.98784 68.9014 9.13473 69.4865 9.42853C70.0717 9.70763 70.5836 10.0822 71.0225 10.5523L71.0883 10.4421C70.9859 10.2952 70.8323 10.1336 70.6275 9.95735V6.07928C70.6275 5.59452 70.7884 5.22727 71.1103 4.97755C71.4321 4.71313 71.9148 4.58093 72.5584 4.58093V18.8373C72.5584 19.322 72.4122 19.704 72.1196 19.9831C71.8417 20.2622 71.3882 20.4017 70.7592 20.4017V19.1678C70.964 18.9034 71.1029 18.7124 71.1761 18.5949L71.1103 18.5068C70.6421 19.0943 70.1229 19.5571 69.5524 19.8949C68.9819 20.2328 68.2943 20.4017 67.4898 20.4017ZM67.9067 18.7051C68.682 18.7051 69.3329 18.5068 69.8595 18.1101C70.3862 17.6988 70.6495 17.192 70.6495 16.5898V12.7778C70.6495 12.1902 70.4008 11.6981 69.9034 11.3015C69.4061 10.8901 68.7332 10.6845 67.8847 10.6845C67.0217 10.6845 66.3488 10.8828 65.866 11.2794C65.3979 11.6614 65.1639 12.1975 65.1639 12.8879V16.4796C65.1639 17.1994 65.3979 17.7502 65.866 18.1322C66.3488 18.5141 67.029 18.7051 67.9067 18.7051Z" fill="black"/>
<path d="M77.0722 7.33524C76.6626 7.33524 76.3189 7.20304 76.0409 6.93862C75.763 6.67421 75.624 6.34369 75.624 5.94707C75.624 5.55045 75.763 5.22727 76.0409 4.97755C76.3189 4.71313 76.6626 4.58093 77.0722 4.58093C77.4672 4.58093 77.8036 4.71313 78.0816 4.97755C78.3595 5.22727 78.4985 5.55045 78.4985 5.94707C78.4985 6.34369 78.3595 6.67421 78.0816 6.93862C77.8036 7.20304 77.4672 7.33524 77.0722 7.33524ZM76.1068 10.398C76.1068 9.91329 76.2604 9.56073 76.5676 9.34039C76.8894 9.10535 77.3721 8.98784 78.0157 8.98784V18.9915C78.0157 19.4763 77.8548 19.8362 77.533 20.0712C77.2258 20.2916 76.7504 20.4017 76.1068 20.4017V10.398Z" fill="black"/>
<path d="M85.9914 20.4017C85.0991 20.4017 84.3019 20.2328 83.5997 19.8949C82.8976 19.5424 82.349 19.065 81.954 18.4627C81.5591 17.8457 81.3616 17.1553 81.3616 16.3914V13.1303C81.3616 12.3518 81.5664 11.6467 81.976 11.015C82.4002 10.3834 82.9634 9.89125 83.6655 9.5387C84.3823 9.17146 85.1576 8.98784 85.9914 8.98784C86.8252 8.98784 87.5859 9.16411 88.2734 9.51666C88.9756 9.86922 89.5241 10.354 89.9191 10.9709C90.3287 11.5879 90.5335 12.2857 90.5335 13.0642V14.4744C90.5335 14.7095 90.4457 14.9078 90.2702 15.0694C90.0946 15.231 89.8825 15.3117 89.6338 15.3117H83.2267V16.3033C83.2267 17.0525 83.4607 17.6548 83.9288 18.1101C84.4116 18.5655 85.0991 18.7932 85.9914 18.7932C86.8837 18.7932 87.564 18.5949 88.0321 18.1983C88.5002 17.8016 88.7342 17.2655 88.7342 16.5898C89.1731 16.5604 89.5388 16.6485 89.8313 16.8542C90.1385 17.0451 90.2921 17.3316 90.2921 17.7135C90.2921 18.1836 90.0873 18.6243 89.6777 19.0356C89.2828 19.4469 88.7561 19.7774 88.0979 20.0271C87.4396 20.2769 86.7375 20.4017 85.9914 20.4017ZM88.7561 13.8134V13.0642C88.7561 12.3297 88.5002 11.7348 87.9882 11.2794C87.4908 10.8094 86.8252 10.5743 85.9914 10.5743C85.1576 10.5743 84.4847 10.8094 83.9727 11.2794C83.4754 11.7348 83.2267 12.3297 83.2267 13.0642V13.8134H88.7561Z" fill="black"/>
<path d="M93.0664 10.6184C93.0664 9.53135 93.6808 8.98784 94.9096 8.98784V10.398C94.7779 10.5303 94.6244 10.7286 94.4488 10.993L94.5366 11.0811C94.9754 10.4641 95.5459 9.9647 96.2481 9.58277C96.9502 9.18615 97.7109 8.98784 98.5301 8.98784C99.715 8.98784 100.651 9.34039 101.339 10.0455C102.026 10.7506 102.37 11.6614 102.37 12.7778V18.9915C102.37 19.4763 102.209 19.8362 101.887 20.0712C101.58 20.2916 101.105 20.4017 100.461 20.4017V12.9761C100.461 12.271 100.264 11.7128 99.8686 11.3015C99.4736 10.8901 98.8738 10.6845 98.0693 10.6845C97.528 10.6845 97.0161 10.802 96.5333 11.037C96.0652 11.2574 95.6849 11.5659 95.3923 11.9625C95.1144 12.3444 94.9754 12.7631 94.9754 13.2185V18.9915C94.9754 19.4763 94.8145 19.8362 94.4927 20.0712C94.1855 20.2916 93.7101 20.4017 93.0664 20.4017V10.6184Z" fill="black"/>
<path d="M109.583 20.4017C108.544 20.4017 107.769 20.1079 107.257 19.5203C106.745 18.9181 106.489 18.1322 106.489 17.1626V10.7286H104.448C104.448 10.2291 104.558 9.84718 104.777 9.58277C104.997 9.31835 105.297 9.18615 105.677 9.18615H106.511V7.09286C106.511 6.60811 106.664 6.25555 106.972 6.03521C107.293 5.80017 107.769 5.68265 108.398 5.68265V9.18615H111.316C111.316 10.2144 110.855 10.7286 109.934 10.7286H108.42V17.0965C108.42 17.6841 108.522 18.1028 108.727 18.3525C108.946 18.5875 109.334 18.7051 109.89 18.7051C110.402 18.7051 110.885 18.5729 111.338 18.3084C111.528 18.4994 111.623 18.7565 111.623 19.0797C111.623 19.4322 111.44 19.7407 111.075 20.0051C110.709 20.2695 110.212 20.4017 109.583 20.4017Z" fill="black"/>
<path d="M43.8397 39.5931C42.611 39.5931 41.5139 39.3654 40.5484 38.91C39.5829 38.44 38.8296 37.7936 38.2883 36.971C37.7617 36.1337 37.4984 35.1862 37.4984 34.1285V29.1928C37.4984 28.1351 37.7617 27.195 38.2883 26.3724C38.8296 25.5497 39.5756 24.9107 40.5265 24.4554C41.4773 24 42.5671 23.7723 43.7959 23.7723C45.0246 23.7723 46.1144 23.9706 47.0653 24.3672C48.0161 24.7492 48.7548 25.2853 49.2814 25.9757C49.8227 26.6662 50.0933 27.4594 50.0933 28.3555C50.0933 28.7962 49.947 29.1414 49.6545 29.3911C49.3619 29.6408 48.9742 29.7657 48.4915 29.7657C48.3891 29.7657 48.2355 29.751 48.0307 29.7216C48.06 29.5453 48.0746 29.2662 48.0746 28.8843C48.0746 28.2527 47.8918 27.6871 47.5261 27.1876C47.175 26.6882 46.6703 26.2989 46.012 26.0198C45.3684 25.7407 44.6297 25.6012 43.7959 25.6012C42.9767 25.6012 42.2453 25.7554 41.6016 26.0639C40.958 26.3577 40.4533 26.7837 40.0876 27.3419C39.7365 27.8854 39.561 28.5024 39.561 29.1928V34.1285C39.561 34.8336 39.7365 35.4653 40.0876 36.0235C40.4533 36.567 40.958 36.993 41.6016 37.3015C42.2599 37.61 43.0059 37.7642 43.8397 37.7642C44.6882 37.7642 45.4415 37.6247 46.0998 37.3456C46.7581 37.0665 47.2701 36.6845 47.6358 36.1998C48.0015 35.7003 48.1843 35.1274 48.1843 34.4811C48.1843 34.246 48.1697 33.9669 48.1404 33.6438C48.3452 33.6144 48.4915 33.5997 48.5793 33.5997C49.062 33.5997 49.4497 33.7393 49.7422 34.0184C50.0494 34.2975 50.203 34.672 50.203 35.1421C50.203 36.0088 49.9324 36.78 49.3911 37.4557C48.8499 38.1315 48.0966 38.6603 47.1311 39.0422C46.1803 39.4095 45.0831 39.5931 43.8397 39.5931Z" fill="black"/>
<path d="M56.3294 39.5931C55.4371 39.5931 54.6252 39.4242 53.8938 39.0863C53.177 38.7484 52.6138 38.2931 52.2042 37.7202C51.8093 37.1326 51.6118 36.4789 51.6118 35.7591V32.1454C51.6118 31.4109 51.8093 30.7426 52.2042 30.1403C52.6138 29.538 53.177 29.0606 53.8938 28.708C54.6106 28.3555 55.4224 28.1792 56.3294 28.1792C57.2363 28.1792 58.0482 28.3555 58.765 28.708C59.4964 29.0606 60.0596 29.538 60.4545 30.1403C60.8641 30.7426 61.0689 31.4109 61.0689 32.1454V35.7591C61.0689 36.4789 60.8641 37.1326 60.4545 37.7202C60.0449 38.2931 59.4818 38.7484 58.765 39.0863C58.0482 39.4242 57.2363 39.5931 56.3294 39.5931ZM56.3294 37.9405C57.2071 37.9405 57.9019 37.7348 58.4139 37.3235C58.9405 36.8975 59.2038 36.3467 59.2038 35.6709V32.2115C59.2038 31.5064 58.9405 30.9335 58.4139 30.4928C57.9019 30.0521 57.2071 29.8318 56.3294 29.8318C55.4663 29.8318 54.7715 30.0521 54.2449 30.4928C53.7182 30.9335 53.4549 31.5064 53.4549 32.2115V35.6709C53.4549 36.3467 53.7109 36.8975 54.2229 37.3235C54.7495 37.7348 55.4517 37.9405 56.3294 37.9405Z" fill="black"/>
<path d="M66.7845 39.5931C65.7167 39.5931 64.9194 39.2993 64.3928 38.7117C63.8662 38.1094 63.6029 37.3235 63.6029 36.354V25.1825C63.6029 24.6977 63.7565 24.3452 64.0637 24.1248C64.3855 23.8898 64.8682 23.7723 65.5119 23.7723V36.2879C65.5119 36.8608 65.6289 37.2721 65.863 37.5218C66.097 37.7716 66.4847 37.8964 67.0259 37.8964C67.5671 37.8964 68.0645 37.7642 68.518 37.4998C68.7081 37.7202 68.8032 37.9772 68.8032 38.271C68.8032 38.6236 68.6204 38.9321 68.2547 39.1965C67.889 39.4609 67.3989 39.5931 66.7845 39.5931Z" fill="black"/>
<path d="M73.7272 39.5931C72.6594 39.5931 71.8621 39.2993 71.3355 38.7117C70.8089 38.1094 70.5456 37.3235 70.5456 36.354V25.1825C70.5456 24.6977 70.6992 24.3452 71.0064 24.1248C71.3282 23.8898 71.8109 23.7723 72.4546 23.7723V36.2879C72.4546 36.8608 72.5716 37.2721 72.8056 37.5218C73.0397 37.7716 73.4273 37.8964 73.9686 37.8964C74.5098 37.8964 75.0072 37.7642 75.4607 37.4998C75.6508 37.7202 75.7459 37.9772 75.7459 38.271C75.7459 38.6236 75.5631 38.9321 75.1973 39.1965C74.8316 39.4609 74.3416 39.5931 73.7272 39.5931Z" fill="black"/>
<path d="M81.8987 39.5931C81.0063 39.5931 80.2091 39.4242 79.507 39.0863C78.8048 38.7337 78.2563 38.2563 77.8613 37.6541C77.4663 37.0371 77.2688 36.3467 77.2688 35.5828V32.3217C77.2688 31.5431 77.4736 30.838 77.8832 30.2064C78.3074 29.5747 78.8706 29.0826 79.5728 28.7301C80.2896 28.3628 81.0649 28.1792 81.8987 28.1792C82.7325 28.1792 83.4931 28.3555 84.1807 28.708C84.8828 29.0606 85.4314 29.5453 85.8263 30.1623C86.2359 30.7793 86.4407 31.477 86.4407 32.2556V33.6658C86.4407 33.9008 86.353 34.0991 86.1774 34.2607C86.0019 34.4223 85.7898 34.5031 85.5411 34.5031H79.1339V35.4947C79.1339 36.2438 79.368 36.8461 79.8361 37.3015C80.3188 37.7569 81.0063 37.9846 81.8987 37.9846C82.791 37.9846 83.4712 37.7863 83.9393 37.3896C84.4074 36.993 84.6415 36.4568 84.6415 35.7811C85.0803 35.7517 85.446 35.8399 85.7386 36.0455C86.0458 36.2365 86.1994 36.5229 86.1994 36.9049C86.1994 37.375 85.9946 37.8156 85.585 38.227C85.19 38.6383 84.6634 38.9688 84.0051 39.2185C83.3469 39.4682 82.6447 39.5931 81.8987 39.5931ZM84.6634 33.0048V32.2556C84.6634 31.5211 84.4074 30.9262 83.8954 30.4708C83.3981 30.0007 82.7325 29.7657 81.8987 29.7657C81.0649 29.7657 80.392 30.0007 79.88 30.4708C79.3826 30.9262 79.1339 31.5211 79.1339 32.2556V33.0048H84.6634Z" fill="black"/>
<path d="M93.3402 44C92.5795 44 91.8701 43.8751 91.2118 43.6254C90.5535 43.3757 90.0342 43.0378 89.6539 42.6118C89.2736 42.2005 89.0834 41.7525 89.0834 41.2677C89.0834 40.8858 89.2077 40.6067 89.4564 40.4304C89.7197 40.2541 90.0708 40.166 90.5097 40.166C90.5389 40.8564 90.8022 41.3999 91.2996 41.7965C91.8116 42.2079 92.4918 42.4135 93.3402 42.4135C95.2126 42.4135 96.1488 41.5028 96.1488 39.6812V38.4032C96.3536 38.227 96.5072 38.0654 96.6096 37.9185L96.5438 37.8083C96.1196 38.2637 95.5856 38.6383 94.942 38.9321C94.313 39.2259 93.6767 39.3727 93.033 39.3727C91.775 39.3727 90.7437 39.0275 89.9391 38.3371C89.1492 37.632 88.7543 36.7066 88.7543 35.5608V32.0132C88.7543 31.264 88.9371 30.603 89.3028 30.0301C89.6832 29.4425 90.1951 28.9871 90.8388 28.664C91.4971 28.3408 92.2211 28.1792 93.0111 28.1792C94.4446 28.1792 95.6442 28.8109 96.6096 30.0742L96.6974 29.986L96.2585 29.4352C96.2585 29.0239 96.3975 28.7154 96.6754 28.5097C96.968 28.2894 97.4361 28.1792 98.0798 28.1792V39.4829C98.0798 40.3643 97.8749 41.1429 97.4654 41.8186C97.0704 42.509 96.5145 43.0452 95.7978 43.4271C95.081 43.809 94.2618 44 93.3402 44ZM93.3841 37.6981C94.1594 37.6981 94.8177 37.4925 95.3589 37.0812C95.9001 36.6552 96.1708 36.1557 96.1708 35.5828V31.9912C96.1708 31.3889 95.9001 30.8821 95.3589 30.4708C94.8323 30.0595 94.1886 29.8538 93.428 29.8538C92.5503 29.8538 91.8701 30.0521 91.3873 30.4488C90.9046 30.8307 90.6632 31.3816 90.6632 32.1014V35.4726C90.6632 36.1631 90.8973 36.7066 91.3654 37.1032C91.8481 37.4998 92.521 37.6981 93.3841 37.6981Z" fill="black"/>
<path d="M105.555 39.5931C104.663 39.5931 103.866 39.4242 103.164 39.0863C102.461 38.7337 101.913 38.2563 101.518 37.6541C101.123 37.0371 100.925 36.3467 100.925 35.5828V32.3217C100.925 31.5431 101.13 30.838 101.54 30.2064C101.964 29.5747 102.527 29.0826 103.229 28.7301C103.946 28.3628 104.721 28.1792 105.555 28.1792C106.389 28.1792 107.15 28.3555 107.837 28.708C108.539 29.0606 109.088 29.5453 109.483 30.1623C109.892 30.7793 110.097 31.477 110.097 32.2556V33.6658C110.097 33.9008 110.009 34.0991 109.834 34.2607C109.658 34.4223 109.446 34.5031 109.198 34.5031H102.79V35.4947C102.79 36.2438 103.025 36.8461 103.493 37.3015C103.975 37.7569 104.663 37.9846 105.555 37.9846C106.448 37.9846 107.128 37.7863 107.596 37.3896C108.064 36.993 108.298 36.4568 108.298 35.7811C108.737 35.7517 109.103 35.8399 109.395 36.0455C109.702 36.2365 109.856 36.5229 109.856 36.9049C109.856 37.375 109.651 37.8156 109.242 38.227C108.847 38.6383 108.32 38.9688 107.662 39.2185C107.003 39.4682 106.301 39.5931 105.555 39.5931ZM108.32 33.0048V32.2556C108.32 31.5211 108.064 30.9262 107.552 30.4708C107.055 30.0007 106.389 29.7657 105.555 29.7657C104.721 29.7657 104.049 30.0007 103.537 30.4708C103.039 30.9262 102.79 31.5211 102.79 32.2556V33.0048H108.32Z" fill="black"/>
<path d="M113.53 39.5931C113.12 39.5931 112.777 39.4609 112.499 39.1965C112.221 38.9174 112.082 38.5722 112.082 38.1608C112.082 37.7495 112.221 37.4043 112.499 37.1252C112.777 36.8461 113.12 36.7066 113.53 36.7066C113.925 36.7066 114.269 36.8535 114.561 37.1473C114.854 37.4264 115 37.7642 115 38.1608C115 38.5575 114.854 38.8953 114.561 39.1744C114.269 39.4535 113.925 39.5931 113.53 39.5931Z" fill="black"/>
</svg>
