<svg width="28" height="29" viewBox="0 0 28 29" fill="none" xmlns="http://www.w3.org/2000/svg">
<path fill-rule="evenodd" clip-rule="evenodd" d="M12.611 0.65695C8.26544 1.10883 4.45701 3.47375 2.14349 7.15702C-1.13671 12.3794 -0.524503 19.2767 3.62259 23.8202C5.9177 26.3348 8.78802 27.8381 12.2301 28.3284C12.8728 28.4199 15.0083 28.4188 15.6793 28.3265C18.823 27.8943 21.6384 26.5 23.7797 24.315C24.4825 23.5979 24.6321 23.4264 25.0983 22.8047C26.4873 20.952 27.3968 18.6935 27.7477 16.2252C27.8386 15.5857 27.8386 13.4402 27.7477 12.8011C27.5135 11.1556 27.0879 9.75359 26.4051 8.37856C25.6815 6.92174 24.939 5.88314 23.7833 4.71127C21.6395 2.53739 18.9553 1.18698 15.8694 0.729781C15.2031 0.631025 13.2746 0.587979 12.611 0.65695ZM9.02544 6.66471C9.41027 6.79977 9.87142 7.27051 10.0058 7.66542C10.3199 8.58869 9.8919 9.56423 9.03141 9.88637C8.01743 10.266 6.98242 9.95073 6.52393 9.12252C6.37673 8.85653 6.36391 8.79 6.36391 8.28992C6.36391 7.83375 6.38314 7.71048 6.48352 7.5227C6.73891 7.04506 7.11468 6.74249 7.6365 6.59432C7.95648 6.5035 8.66901 6.53959 9.02544 6.66471ZM19.3456 11.3362C19.8963 11.4858 20.5023 11.8363 20.8937 12.2317C21.3124 12.6545 21.5626 13.0594 21.773 13.6543C22.0749 14.5079 22.0886 14.7122 22.0886 18.3248V21.6331H20.4048H18.721L18.7201 18.6574C18.7193 16.3086 18.703 15.6056 18.6426 15.3206C18.5025 14.6593 18.2377 14.2777 17.7544 14.0406C17.3238 13.8293 16.7167 13.8253 16.2767 14.0306C15.8852 14.2134 15.5591 14.5487 15.3403 14.9933L15.1632 15.3531L15.1458 18.4931L15.1283 21.6331H13.4484H11.7684V16.5241V11.4151H13.4523H15.1361L15.1378 12.1353L15.1395 12.8554L15.2771 12.6924C15.3529 12.6027 15.5103 12.4154 15.6272 12.2762C16.0209 11.8069 16.8059 11.3776 17.4999 11.252C17.8842 11.1825 18.9605 11.2316 19.3456 11.3362ZM9.90836 16.5377L9.92221 21.6331H8.21096H6.4997V16.5604C6.4997 13.7703 6.51632 11.4709 6.53669 11.4505C6.55701 11.4302 7.32087 11.4201 8.2341 11.4279L9.89451 11.4423L9.90836 16.5377Z" fill="#646464" fill-opacity="0.68"/>
</svg>
