<svg width="119" height="46" viewBox="0 0 119 46" fill="none" xmlns="http://www.w3.org/2000/svg">
<path d="M29.2386 8.07542L16.3409 15.5219V0.628906L29.2386 8.07542Z" fill="#A3356C"/>
<path d="M0.605672 29.2707L13.5034 21.8242V36.7172L0.605672 29.2707Z" fill="#F4925B"/>
<path d="M0.485493 12.8476L13.3832 20.2941L0.485493 27.7406L0.485493 12.8476Z" fill="#F9B90D"/>
<path d="M32.4719 27.1641V42.0571L19.5741 34.6106L32.4719 27.1641Z" fill="#F9B90D"/>
<path d="M13.4692 3.77617L13.4692 18.6692L0.571481 11.2227L13.4692 3.77617Z" fill="#F9A81D"/>
<path d="M13.1595 38.0412L0.261719 45.4877L0.261719 30.5947L13.1595 38.0412Z" fill="#F9A81D"/>
<path d="M16.3409 16.9749L29.2386 9.52835V24.4214L16.3409 16.9749Z" fill="#BA437D"/>
<path d="M16.5647 18.3936L29.4624 25.8401L16.5647 33.2866V18.3936Z" fill="#A3356C"/>
<path d="M39.2081 6.54007C39.2081 6.25308 39.3063 6.01896 39.5027 5.8377C39.7142 5.64134 39.9785 5.54316 40.2957 5.54316H46.549C48.0142 5.54316 49.1772 5.97365 50.0382 6.83461C50.9143 7.68048 51.3523 8.81333 51.3523 10.2332C51.3523 12.0155 50.5744 13.2768 49.0186 14.0169V14.0849C49.6984 14.3719 50.2195 14.8099 50.582 15.399C50.9445 15.9729 51.1257 16.6753 51.1257 17.5061V19.8397C51.1257 20.4137 50.9445 20.8518 50.582 21.1539C50.2195 21.456 49.6908 21.607 48.996 21.607V17.642C48.996 16.7508 48.7921 16.0787 48.3842 15.6255C47.9915 15.1573 47.4024 14.9232 46.617 14.9232H41.3153V19.8397C41.3153 20.4137 41.134 20.8518 40.7715 21.1539C40.4241 21.456 39.903 21.607 39.2081 21.607V6.54007ZM46.4811 13.088C47.3118 13.088 47.9689 12.8312 48.4522 12.3176C48.9507 11.8041 49.1999 11.1017 49.1999 10.2105C49.1999 9.30423 48.9658 8.60941 48.4975 8.12606C48.0293 7.64271 47.3571 7.40104 46.4811 7.40104H41.3153V13.088H46.4811Z" fill="black"/>
<path d="M57.4839 21.607C56.1849 21.607 55.1351 21.2596 54.3345 20.5648C53.5491 19.87 53.1564 18.9561 53.1564 17.8233C53.1564 16.6753 53.5718 15.7539 54.4025 15.0591C55.2333 14.3492 56.3284 13.9942 57.6878 13.9942C59.1378 13.9942 60.3311 14.5078 61.2676 15.5349L61.3582 15.4443C61.1921 15.263 61.0033 15.0742 60.7918 14.8779V13.9263C60.7918 13.1559 60.5501 12.5593 60.0668 12.1364C59.5834 11.7134 58.8962 11.502 58.005 11.502C56.419 11.502 55.2861 12.1288 54.6064 13.3825C54.3648 13.2617 54.1608 13.1031 53.9947 12.9067C53.8436 12.6952 53.7681 12.4838 53.7681 12.2723C53.7681 11.8645 53.972 11.4793 54.3799 11.1168C54.7877 10.7392 55.3239 10.4371 55.9885 10.2105C56.6682 9.98394 57.3781 9.87066 58.1183 9.87066C59.5532 9.87066 60.6785 10.2256 61.4942 10.9355C62.3249 11.6455 62.7403 12.6273 62.7403 13.8809V20.089C62.7403 20.6176 62.5893 21.0028 62.2872 21.2445C61.9851 21.4862 61.5093 21.607 60.8598 21.607V20.5421C61.177 20.2098 61.3507 20.0135 61.3809 19.953L61.2903 19.8624C60.3084 21.0255 59.0397 21.607 57.4839 21.607ZM57.8237 20.0437C58.7602 20.0437 59.4928 19.8473 60.0215 19.4546C60.5652 19.0619 60.8371 18.5181 60.8371 17.8233C60.8371 17.1285 60.5728 16.5771 60.0441 16.1693C59.5155 15.7615 58.7904 15.5576 57.869 15.5576C57.0081 15.5576 56.3284 15.7615 55.8299 16.1693C55.3466 16.562 55.1049 17.1134 55.1049 17.8233C55.1049 18.5332 55.339 19.0845 55.8073 19.4772C56.2906 19.8549 56.9628 20.0437 57.8237 20.0437Z" fill="black"/>
<path d="M69.9498 21.607C68.6508 21.607 67.5935 21.252 66.7779 20.5421C65.9773 19.8171 65.577 18.8579 65.577 17.6647V13.7903C65.577 13.02 65.7658 12.3403 66.1435 11.7512C66.5211 11.147 67.0422 10.6863 67.7068 10.3691C68.3865 10.0368 69.1644 9.87066 70.0405 9.87066C70.7504 9.87066 71.4074 10.0217 72.0116 10.3238C72.6158 10.6108 73.1445 10.996 73.5976 11.4793L73.6656 11.366C73.5599 11.215 73.4013 11.0488 73.1898 10.8676V6.87993C73.1898 6.38147 73.3559 6.00386 73.6883 5.74708C74.0206 5.47519 74.519 5.33925 75.1836 5.33925V19.9983C75.1836 20.4968 75.0326 20.8895 74.7305 21.1765C74.4435 21.4635 73.9752 21.607 73.3257 21.607V20.3382C73.5372 20.0663 73.6807 19.87 73.7562 19.7491L73.6883 19.6585C73.2049 20.2627 72.6687 20.7385 72.0796 21.0859C71.4905 21.4333 70.7806 21.607 69.9498 21.607ZM70.3803 19.8624C71.1809 19.8624 71.853 19.6585 72.3968 19.2507C72.9406 18.8277 73.2125 18.3066 73.2125 17.6873V13.7677C73.2125 13.1635 72.9557 12.6575 72.4421 12.2496C71.9286 11.8267 71.2337 11.6152 70.3577 11.6152C69.4665 11.6152 68.7717 11.8192 68.2732 12.227C67.7899 12.6197 67.5482 13.171 67.5482 13.8809V17.574C67.5482 18.3142 67.7899 18.8806 68.2732 19.2733C68.7717 19.666 69.474 19.8624 70.3803 19.8624Z" fill="black"/>
<path d="M79.8444 8.17138C79.4215 8.17138 79.0665 8.03543 78.7795 7.76355C78.4925 7.49167 78.3491 7.15181 78.3491 6.74399C78.3491 6.33616 78.4925 6.00386 78.7795 5.74708C79.0665 5.47519 79.4215 5.33925 79.8444 5.33925C80.2522 5.33925 80.5997 5.47519 80.8866 5.74708C81.1736 6.00386 81.3171 6.33616 81.3171 6.74399C81.3171 7.15181 81.1736 7.49167 80.8866 7.76355C80.5997 8.03543 80.2522 8.17138 79.8444 8.17138ZM78.8475 11.3207C78.8475 10.8223 79.0061 10.4597 79.3233 10.2332C79.6556 9.99149 80.1541 9.87066 80.8187 9.87066V20.1569C80.8187 20.6554 80.6525 21.0255 80.3202 21.2671C80.003 21.4937 79.5121 21.607 78.8475 21.607V11.3207Z" fill="black"/>
<path d="M89.0541 21.607C88.1328 21.607 87.3096 21.4333 86.5845 21.0859C85.8595 20.7234 85.2931 20.2325 84.8853 19.6132C84.4774 18.9788 84.2735 18.2689 84.2735 17.4834V14.1302C84.2735 13.3296 84.485 12.6046 84.9079 11.9551C85.3459 11.3056 85.9275 10.7996 86.6525 10.4371C87.3926 10.0595 88.1932 9.87066 89.0541 9.87066C89.9151 9.87066 90.7006 10.0519 91.4105 10.4144C92.1355 10.7769 92.7019 11.2754 93.1098 11.9098C93.5327 12.5442 93.7441 13.2617 93.7441 14.0622V15.5123C93.7441 15.7539 93.6535 15.9578 93.4723 16.124C93.291 16.2901 93.072 16.3732 92.8152 16.3732H86.1994V17.3928C86.1994 18.1631 86.441 18.7824 86.9244 19.2507C87.4228 19.7189 88.1328 19.953 89.0541 19.953C89.9755 19.953 90.6779 19.7491 91.1612 19.3413C91.6446 18.9335 91.8863 18.3821 91.8863 17.6873C92.3394 17.6571 92.717 17.7477 93.0191 17.9592C93.3363 18.1556 93.4949 18.4501 93.4949 18.8428C93.4949 19.3262 93.2835 19.7793 92.8605 20.2023C92.4527 20.6252 91.9089 20.965 91.2292 21.2218C90.5495 21.4786 89.8245 21.607 89.0541 21.607ZM91.9089 14.8325V14.0622C91.9089 13.307 91.6446 12.6952 91.1159 12.227C90.6024 11.7436 89.9151 11.502 89.0541 11.502C88.1932 11.502 87.4984 11.7436 86.9697 12.227C86.4561 12.6952 86.1994 13.307 86.1994 14.0622V14.8325H91.9089Z" fill="black"/>
<path d="M96.3596 11.5473C96.3596 10.4295 96.994 9.87066 98.2628 9.87066V11.3207C98.1269 11.4566 97.9683 11.6606 97.787 11.9324L97.8776 12.0231C98.3308 11.3887 98.9199 10.8751 99.6449 10.4824C100.37 10.0746 101.155 9.87066 102.001 9.87066C103.225 9.87066 104.191 10.2332 104.901 10.9582C105.611 11.6832 105.966 12.6197 105.966 13.7677V20.1569C105.966 20.6554 105.8 21.0255 105.468 21.2671C105.151 21.4937 104.66 21.607 103.995 21.607V13.9716C103.995 13.2466 103.791 12.6726 103.383 12.2496C102.975 11.8267 102.356 11.6152 101.525 11.6152C100.967 11.6152 100.438 11.7361 99.9394 11.9778C99.4561 12.2043 99.0634 12.5215 98.7613 12.9294C98.4743 13.3221 98.3308 13.7526 98.3308 14.2208V20.1569C98.3308 20.6554 98.1646 21.0255 97.8323 21.2671C97.5151 21.4937 97.0242 21.607 96.3596 21.607V11.5473Z" fill="black"/>
<path d="M113.414 21.607C112.341 21.607 111.541 21.3049 111.012 20.7007C110.484 20.0814 110.219 19.2733 110.219 18.2764V11.6606H108.112C108.112 11.147 108.225 10.7543 108.452 10.4824C108.678 10.2105 108.988 10.0746 109.381 10.0746H110.242V7.92215C110.242 7.4237 110.4 7.06118 110.718 6.83461C111.05 6.59294 111.541 6.4721 112.19 6.4721V10.0746H115.204C115.204 11.1319 114.728 11.6606 113.776 11.6606H112.213V18.2084C112.213 18.8126 112.319 19.2431 112.53 19.4999C112.757 19.7416 113.157 19.8624 113.731 19.8624C114.26 19.8624 114.758 19.7265 115.226 19.4546C115.423 19.6509 115.521 19.9153 115.521 20.2476C115.521 20.6101 115.332 20.9273 114.954 21.1992C114.577 21.4711 114.063 21.607 113.414 21.607Z" fill="black"/>
<path d="M45.5295 41.3405C44.2607 41.3405 43.1278 41.1064 42.1309 40.6382C41.134 40.1548 40.3561 39.4902 39.7972 38.6443C39.2535 37.7834 38.9816 36.8091 38.9816 35.7216V30.6464C38.9816 29.5589 39.2535 28.5922 39.7972 27.7463C40.3561 26.9005 41.1264 26.2434 42.1082 25.7752C43.0901 25.3069 44.2154 25.0728 45.4841 25.0728C46.7529 25.0728 47.8782 25.2767 48.86 25.6845C49.8419 26.0773 50.6046 26.6286 51.1484 27.3385C51.7073 28.0484 51.9867 28.8641 51.9867 29.7855C51.9867 30.2386 51.8357 30.5936 51.5336 30.8503C51.2315 31.1071 50.8312 31.2355 50.3328 31.2355C50.227 31.2355 50.0684 31.2204 49.857 31.1902C49.8872 31.0089 49.9023 30.7219 49.9023 30.3292C49.9023 29.6797 49.7135 29.0982 49.3358 28.5846C48.9733 28.0711 48.4522 27.6708 47.7725 27.3838C47.1079 27.0968 46.3451 26.9533 45.4841 26.9533C44.6383 26.9533 43.883 27.1119 43.2184 27.4291C42.5538 27.7312 42.0327 28.1692 41.6551 28.7432C41.2926 29.3021 41.1113 29.9365 41.1113 30.6464V35.7216C41.1113 36.4466 41.2926 37.0961 41.6551 37.6701C42.0327 38.229 42.5538 38.667 43.2184 38.9842C43.8982 39.3014 44.6685 39.46 45.5295 39.46C46.4055 39.46 47.1834 39.3165 47.8631 39.0295C48.5428 38.7425 49.0715 38.3498 49.4491 37.8514C49.8267 37.3378 50.0156 36.7487 50.0156 36.0841C50.0156 35.8424 50.0004 35.5554 49.9702 35.2231C50.1817 35.1929 50.3328 35.1778 50.4234 35.1778C50.9218 35.1778 51.3221 35.3213 51.6242 35.6083C51.9414 35.8953 52.1 36.2805 52.1 36.7638C52.1 37.655 51.8206 38.448 51.2617 39.1428C50.7028 39.8376 49.9249 40.3814 48.928 40.7741C47.9462 41.1517 46.8134 41.3405 45.5295 41.3405Z" fill="black"/>
<path d="M58.4259 41.3405C57.5045 41.3405 56.6662 41.1668 55.911 40.8194C55.1709 40.472 54.5893 40.0038 54.1664 39.4147C53.7586 38.8105 53.5547 38.1383 53.5547 37.3982V33.6825C53.5547 32.9272 53.7586 32.24 54.1664 31.6207C54.5893 31.0014 55.1709 30.5105 55.911 30.148C56.6511 29.7855 57.4894 29.6042 58.4259 29.6042C59.3624 29.6042 60.2007 29.7855 60.9408 30.148C61.6961 30.5105 62.2776 31.0014 62.6854 31.6207C63.1084 32.24 63.3198 32.9272 63.3198 33.6825V37.3982C63.3198 38.1383 63.1084 38.8105 62.6854 39.4147C62.2625 40.0038 61.681 40.472 60.9408 40.8194C60.2007 41.1668 59.3624 41.3405 58.4259 41.3405ZM58.4259 39.6413C59.3322 39.6413 60.0497 39.4298 60.5783 39.0069C61.1221 38.5688 61.394 38.0024 61.394 37.3076V33.7504C61.394 33.0254 61.1221 32.4363 60.5783 31.9832C60.0497 31.53 59.3322 31.3035 58.4259 31.3035C57.5347 31.3035 56.8173 31.53 56.2735 31.9832C55.7297 32.4363 55.4578 33.0254 55.4578 33.7504V37.3076C55.4578 38.0024 55.7222 38.5688 56.2508 39.0069C56.7946 39.4298 57.5196 39.6413 58.4259 39.6413Z" fill="black"/>
<path d="M69.2216 41.3405C68.119 41.3405 67.2958 41.0384 66.752 40.4343C66.2082 39.815 65.9364 39.0069 65.9364 38.01V26.5228C65.9364 26.0244 66.095 25.6619 66.4122 25.4353C66.7445 25.1936 67.2429 25.0728 67.9075 25.0728V37.942C67.9075 38.5311 68.0284 38.954 68.27 39.2108C68.5117 39.4676 68.912 39.5959 69.4709 39.5959C70.0297 39.5959 70.5433 39.46 71.0115 39.1881C71.2079 39.4147 71.3061 39.679 71.3061 39.9811C71.3061 40.3436 71.1173 40.6608 70.7397 40.9327C70.362 41.2046 69.856 41.3405 69.2216 41.3405Z" fill="black"/>
<path d="M76.3905 41.3405C75.2878 41.3405 74.4646 41.0384 73.9208 40.4343C73.3771 39.815 73.1052 39.0069 73.1052 38.01V26.5228C73.1052 26.0244 73.2638 25.6619 73.581 25.4353C73.9133 25.1936 74.4117 25.0728 75.0764 25.0728V37.942C75.0764 38.5311 75.1972 38.954 75.4389 39.2108C75.6805 39.4676 76.0808 39.5959 76.6397 39.5959C77.1986 39.5959 77.7121 39.46 78.1804 39.1881C78.3767 39.4147 78.4749 39.679 78.4749 39.9811C78.4749 40.3436 78.2861 40.6608 77.9085 40.9327C77.5309 41.2046 77.0249 41.3405 76.3905 41.3405Z" fill="black"/>
<path d="M84.8281 41.3405C83.9067 41.3405 83.0835 41.1668 82.3585 40.8194C81.6334 40.4569 81.067 39.966 80.6592 39.3467C80.2514 38.7123 80.0474 38.0024 80.0474 37.217V33.8637C80.0474 33.0632 80.2589 32.3381 80.6818 31.6886C81.1199 31.0391 81.7014 30.5331 82.4264 30.1706C83.1666 29.793 83.9671 29.6042 84.8281 29.6042C85.689 29.6042 86.4745 29.7855 87.1844 30.148C87.9094 30.5105 88.4759 31.0089 88.8837 31.6433C89.3066 32.2777 89.5181 32.9952 89.5181 33.7957V35.2458C89.5181 35.4875 89.4275 35.6914 89.2462 35.8575C89.0649 36.0237 88.8459 36.1068 88.5891 36.1068H81.9733V37.1263C81.9733 37.8967 82.215 38.516 82.6983 38.9842C83.1968 39.4525 83.9067 39.6866 84.8281 39.6866C85.7495 39.6866 86.4518 39.4827 86.9352 39.0748C87.4185 38.667 87.6602 38.1157 87.6602 37.4209C88.1133 37.3907 88.491 37.4813 88.7931 37.6928C89.1103 37.8891 89.2688 38.1837 89.2688 38.5764C89.2688 39.0597 89.0574 39.5129 88.6345 39.9358C88.2266 40.3587 87.6829 40.6986 87.0031 40.9554C86.3234 41.2121 85.5984 41.3405 84.8281 41.3405ZM87.6829 34.5661V33.7957C87.6829 33.0405 87.4185 32.4288 86.8899 31.9605C86.3763 31.4772 85.689 31.2355 84.8281 31.2355C83.9671 31.2355 83.2723 31.4772 82.7436 31.9605C82.2301 32.4288 81.9733 33.0405 81.9733 33.7957V34.5661H87.6829Z" fill="black"/>
<path d="M96.6423 45.8719C95.8569 45.8719 95.1243 45.7436 94.4446 45.4868C93.7649 45.23 93.2286 44.8826 92.8359 44.4445C92.4432 44.0216 92.2468 43.5609 92.2468 43.0625C92.2468 42.6698 92.3752 42.3828 92.632 42.2015C92.9039 42.0202 93.2664 41.9296 93.7195 41.9296C93.7498 42.6395 94.0216 43.1984 94.5352 43.6062C95.0639 44.0292 95.7662 44.2406 96.6423 44.2406C98.5757 44.2406 99.5424 43.3041 99.5424 41.4312V40.1171C99.7539 39.9358 99.9125 39.7696 100.018 39.6186L99.9502 39.5053C99.5122 39.9736 98.9609 40.3587 98.2963 40.6608C97.6468 40.9629 96.9897 41.114 96.3251 41.114C95.0261 41.114 93.9612 40.759 93.1305 40.0491C92.3148 39.3241 91.907 38.3725 91.907 37.1943V33.5465C91.907 32.7762 92.0958 32.0965 92.4734 31.5074C92.8661 30.9032 93.3948 30.435 94.0594 30.1026C94.7391 29.7703 95.4868 29.6042 96.3024 29.6042C97.7827 29.6042 99.0213 30.2537 100.018 31.5527L100.109 31.4621L99.6557 30.8956C99.6557 30.4727 99.7992 30.1555 100.086 29.9441C100.388 29.7175 100.872 29.6042 101.536 29.6042V41.2273C101.536 42.1335 101.325 42.9341 100.902 43.6289C100.494 44.3388 99.92 44.8901 99.1799 45.2829C98.4398 45.6756 97.5939 45.8719 96.6423 45.8719ZM96.6876 39.392C97.4882 39.392 98.1679 39.1806 98.7267 38.7576C99.2856 38.3196 99.5651 37.806 99.5651 37.217V33.5239C99.5651 32.9046 99.2856 32.3835 98.7267 31.9605C98.183 31.5376 97.5184 31.3261 96.7329 31.3261C95.8266 31.3261 95.1243 31.53 94.6258 31.9379C94.1274 32.3306 93.8781 32.897 93.8781 33.6371V37.1037C93.8781 37.8136 94.1198 38.3725 94.6032 38.7803C95.1016 39.1881 95.7964 39.392 96.6876 39.392Z" fill="black"/>
<path d="M109.255 41.3405C108.334 41.3405 107.511 41.1668 106.786 40.8194C106.061 40.4569 105.494 39.966 105.086 39.3467C104.678 38.7123 104.475 38.0024 104.475 37.217V33.8637C104.475 33.0632 104.686 32.3381 105.109 31.6886C105.547 31.0391 106.129 30.5331 106.854 30.1706C107.594 29.793 108.394 29.6042 109.255 29.6042C110.116 29.6042 110.902 29.7855 111.612 30.148C112.337 30.5105 112.903 31.0089 113.311 31.6433C113.734 32.2777 113.945 32.9952 113.945 33.7957V35.2458C113.945 35.4875 113.855 35.6914 113.673 35.8575C113.492 36.0237 113.273 36.1068 113.016 36.1068H106.4V37.1263C106.4 37.8967 106.642 38.516 107.125 38.9842C107.624 39.4525 108.334 39.6866 109.255 39.6866C110.177 39.6866 110.879 39.4827 111.362 39.0748C111.846 38.667 112.087 38.1157 112.087 37.4209C112.54 37.3907 112.918 37.4813 113.22 37.6928C113.537 37.8891 113.696 38.1837 113.696 38.5764C113.696 39.0597 113.484 39.5129 113.062 39.9358C112.654 40.3587 112.11 40.6986 111.43 40.9554C110.751 41.2121 110.026 41.3405 109.255 41.3405ZM112.11 34.5661V33.7957C112.11 33.0405 111.846 32.4288 111.317 31.9605C110.803 31.4772 110.116 31.2355 109.255 31.2355C108.394 31.2355 107.699 31.4772 107.171 31.9605C106.657 32.4288 106.4 33.0405 106.4 33.7957V34.5661H112.11Z" fill="black"/>
<path d="M117.49 41.3405C117.067 41.3405 116.712 41.2046 116.425 40.9327C116.138 40.6457 115.994 40.2908 115.994 39.8678C115.994 39.4449 116.138 39.0899 116.425 38.803C116.712 38.516 117.067 38.3725 117.49 38.3725C117.897 38.3725 118.252 38.5235 118.554 38.8256C118.857 39.1126 119.008 39.46 119.008 39.8678C119.008 40.2757 118.857 40.6231 118.554 40.9101C118.252 41.197 117.897 41.3405 117.49 41.3405Z" fill="black"/>
</svg>
